/* XPM */
static char *_dd991fcf4694cc7845caa6fe0c0e061VcL4YVUr1Pb5g3ig[] = {
/* columns rows colors chars-per-pixel */
"50 50 11 1 ",
"  c #383C3F",
". c #2D3037",
"X c #171D21",
"o c #696468",
"O c gray46",
"+ c #33323D",
"@ c #DAAB76",
"# c #F7EC9B",
"$ c white",
"% c #D88571",
"& c #C25F62",
/* pixels */
"  ..  X.........oOo  ...       X........     X... ",
" X...........o....  X......  XX...oO.......XX.....",
"X....o......Oo ........oo........oO  .......oo....",
"...oOOo....Oo  .......ooOo...oO...   .....ooOo ...",
"..oOOoO ...   ........oOoOO...o .........ooOo  ...",
"..O  o  .... .........oO  O .............oOO  X...",
"..o o   .......ooo.....o o  X.....oo....oO o XX..o",
"..     X......oOOoo....     X....oOOo...o    X..oO",
" ..   X......oOoo o ....  XX...oOOoOo ..o o XX.oOo",
" ...XX.......oOo o +++++++++@@@@@@o o ..oo   X.oO ",
" ..............    +++++++++@@@@@@o   ...    X..  ",
"......Oo.........X +++++++++@@@@@@  XX....  XX....",
".....Oo ........+++#########$$$$$$@@@.....XXX.....",
"....o  .........+++#########$$$$$$@@@.............",
"...........oo...+++#########$$$$$$@@@.............",
"o........ooOOOO.+++#########$$$$$$@@@Ooooo.......o",
"oO.......oOo++++###%%%%%%%%%%%%%%%$$$@@@@Oo......o",
"O ......oOoo++++###%%%%%%%%%%%%%%%$$$@@@@Oo X...oO",
"o X.....o  O++++###%%%%%%%%%%%%%%%$$$@@@@o  X...oO",
"  X.....o+++####@@@&&&&&&&&&&&&&&&%%%$$$$@@@X...  ",
" X.......+++####@@@&&&&&&&&&&&&&&&%%%$$$$@@@..... ",
"X...oo...+++####@@@&&&&&&&&&&&&&&&%%%$$$$@@@......",
"....OOo..+++####&&&@@@@@@&&&@@@@@@&&&####+++......",
"....oO  .+++####&&&@@@@@@&&&@@@@@@&&&####+++......",
"oo... o X+++####&&&@@@@@@&&&@@@@@@&&&####+++......",
" O ..   X+++####&&&@@@@@@&&&@@@@@@&&&####+++.oo...",
". X... X.+++####&&&@@@@@@&&&@@@@@@&&&####+++ooOo..",
".........+++####&&&@@@@@@&&&@@@@@@&&&####+++oOoOo.",
".........+++####&&&&&&&&&&&&&&&&&&&&&####+++OOoOo.",
"..ooOOoo.+++####&&&&&&&&&&&&&&&&&&&&&####+++OoooO ",
".oOOoOOo +++####&&&&&&&&&&&&&&&&&&&&&####+++O  O  ",
".oOo oo  +++####@@@&&&@@@&&&@@@&&&%%%####+++oo o  ",
".O   oo  +++####@@@&&&@@@&&&@@@&&&%%%####+++.    X",
".oo o   X+++####@@@&&&@@@&&&@@@&&&%%%####+++..  X.",
"..      X...++++###@@@@@@@@@@@@@@@###++++OOO..XX..",
"....  XXX..o++++###@@@@@@@@@@@@@@@###++++oO ......",
"....XXXX..oO++++###@@@@@@@@@@@@@@@###++++ o  .....",
".....XX...oo o o+++###############+++.oO o   ....o",
"oo.........     +++###############+++..     X...oo",
"Ooo..........   +++###############+++...X  X...ooO",
"OOo .........XXX+++###############+++....XXX...oOo",
"o   X...oo.....XX..+++++++++++++++..oo....XXX..oOo",
" o  X..oOOoo..XX...+++++++++++++++oooOoo.X..XX..o ",
"   X..oOooOO .XX..o+++++++++++++++OOOO OoX.ooXX.  ",
"   X..oO  o   X... Oo   X.......oO  oo O X.oO XXX ",
" X....oO o   XX....   XX........Oo Oo    X..   XXX",
"X......     XX......XX...oooo....       X....XX...",
"........  XXX...........ooOOOo.....   XX..oo......",
"O...oo..XXX......o.....ooO  oo X...XXX..ooOo .....",
" ..o O .........oOO ...oOoo o  X.......oOOo   ...o"
};
