/* XPM */
static char *result[] = {
/* columns rows colors chars-per-pixel */
"50 50 67 1 ",
"  c #009346",
". c #00954A",
"X c #05984E",
"o c #08984E",
"O c #079850",
"+ c #099951",
"@ c #119C56",
"# c #159E59",
"$ c #189F5B",
"% c #1BA15E",
"& c #21A15F",
"* c #1FA261",
"= c #24A463",
"- c #29A566",
"; c #2FA86C",
": c #32AA6E",
"> c #36AB71",
", c #3DAE75",
"< c #40AF77",
"1 c #40AF78",
"2 c #44B17A",
"3 c #4AB37E",
"4 c #4DB481",
"5 c #54B785",
"6 c #59B887",
"7 c #57B888",
"8 c #5DBA8B",
"9 c #62BC8F",
"0 c #66BE92",
"q c #69BF93",
"w c #6DC096",
"e c #6FC198",
"r c #74C39C",
"t c #7AC59F",
"y c #7BC6A1",
"u c #82C9A5",
"i c #86CBA9",
"p c #8CCDAC",
"a c #90CEAF",
"s c #92CFB1",
"d c #96D1B3",
"f c #9AD2B6",
"g c #9ED3B9",
"h c #A2D5BB",
"j c #A8D7BF",
"k c #ADD9C3",
"l c #B1DBC6",
"z c #B6DDC9",
"x c #B9DFCC",
"c c #BDE0CF",
"v c #BFE1D0",
"b c #C4E3D3",
"n c #C8E4D6",
"m c #CDE6DA",
"M c #D0E7DC",
"N c #D2E8DD",
"B c #D7EAE0",
"V c #DBECE3",
"C c #E0EEE7",
"Z c #E3EFE9",
"A c #E6F0EB",
"S c #EAF2EE",
"D c #EFF3F1",
"F c #F7F7F7",
"G c #F8F7F7",
"H c #F8F7F8",
"J c #FBF8F9",
/* pixels */
"FGJJJJJJHJJJJJJJJHJJJJJJJJJJHJJJJJJJJJJJJJJJHJJJHG",
"GZkkkkkkkkkkkkkkkkkkkkkkkkkkkkkkkkkkkkkkkkkkkkkkCG",
"Jz+X.XXXX.XXOOOOXXOOXOoXOXXXOOXOXo+oOXX+XXXXX.XOkJ",
"Jz+.........qkkkkkkkjkkkkkkkkkkkkkkjkkkyX......XkJ",
"JzX....XX...hJJJGHJJJJJJJGGGGMbvbCJJJJJxO.X....XlJ",
"JzO.........gJFGGGFFFGFFGFGFF3+++iJGJJJxO...X..XlJ",
"JzO.........gJFFFFFHFFFFGGFFF1   uJFFFJxO......XlJ",
"JzO.X..X....gJFFFGFFFGFGFGFFF9--=dJGFFJxO.X....XlJ",
"Jzo......X..gJGFGGFJHJJJGJJJJSZAZFFFFFGx+......XkJ",
"Jzo.X..X....fJGFFJnttrrrrrrrrrrtrxFFFFJx+......XlJ",
"HzO.........gJJJSCp. .  . .  ..  rVSFFJx+..X...XlJ",
"JzO..X.X....fJJJf&@.  ...........@=yGFJx+......XkJ",
"Jzo.....X...gJvp4 =wqr7+....X..... qJGJx+......XlJ",
"Jzo.........gJq . 5FFSv@...X...+@o 9AASkO...X..XkJ",
"Jzo ...XX...gJr . 5Fb>=X.......ym8 @:;;=X..X...XlJ",
"Jzo.........gJh765pJzX .X....<6xJh6:. . .......XkJ",
"JzX..X......gJFFFFFGxO...X..XlJFFFHp+O+XX......XlJ",
"JzO........XfJFFFFFJz+......XlJFFFFVzzzpX......XlJ",
"JzO.........gJHFFFFJz+....X.OlGFFFFJJJJc+......XlH",
"JzX.X....X..fJFGFFFJxo......XkFFFFFFHFJc+..X...XlJ",
"Jzo...X.. ..fJGFFFFJxO... ..X,5xJFGFFFJx+......XkJ",
"Jzo....X-:::kJGFFFFJz+..X;;+.  fJGFFGFJxo..XX..XlH",
"JzO....@xSSSFFJGGJFJxO..$mV;...fJGFFFFJx+......XlJ",
"JzX..@ydAGa00000000q4X. $BS; ..1qlGGFFJx+......XlJ",
"JzO. %VJVm:  .. .   ..O&,VS4=O.. uGGGFJxO......XkJ",
"Jzo..%VS<#X    .  ..  =mCFFZB,.. uJGFGJxO.X....XlJ",
"Jzo..&VFstyyytttyyttytaDJFFFF1 ..uJGFFJxO..X...XkJ",
"Jzo..$bVZZZZFGJJJJJJJJJFFFFFF6#O tZAFFJxO....X.XlJ",
"JzO..O%=====kJFFFFFFFFHFFGFFFBM5 @=uJGJx+......OkJ",
"JzO..... ...fJHFFFFFFGFFFFFFFFG7 . qHJJx+......OkJ",
"JzO......X..gJFFFFFFFFFFFFFFGGG9+@OrHFJxO.X..X.OlJ",
"JzO....... .fJHFFFFFFFGFFGFFGJJVbbbBFFJvO......OkJ",
"JzO.......,5xHHFFFFFFFFFFFFFFchkhNJJGVkyX..X...XkJ",
"Jzo......@lHFHFFFFFFFFFFHFFFS2.ooiJFFhX........XlJ",
"Hzo....+dxAJHHHHFJJFJJHJFFDw2@.ezBJk2;.........XlJ",
"JzO....+fcxxxxxxclccczclcck* ..rcccq ..........XlJ",
"JzO.....OOOOOOOO+++X+o+oXOOX..XX+++OX....XX....XkJ",
"Jzo..@pgggkghh4.2jw ....+pd=.rg, 5hgggffggga#..XlJ",
"Jzo..%VJBmmmmM8 6Nd;=.o-,cb=XzJ8 wNmmVJFmmMx$ .XlJ",
"Jzo..%VS,++@@+O.X@8Sk.=VN;+XXkJ8 +@@@8Gc$@@+X..XlJ",
"JzO..%BFgppppp,.. =wrpue9+..OlJ6.... 5Gx+......XkJ",
"JzO..%BHVVVVVV0...+%5Nc-%X..OlJ8 ... 5Gx+..X...XlJ",
"JzO..$VS1%$$$$O.  3Ck&,Mb% .OkJ8 ....5Fx+......XkJ",
"JzO..%BFaqrrtq>.:rti9.%tutw%OlJ8.... 5Jx+......XlJ",
"Jzo..$nZSZZSSSq wSd.....#nV;XhA5 .X..3Ak+......XkJ",
"JzX ..&==-====@ +=%     .*=. %=+     +=%.  .  ..kJ",
"Jm0888888887888888888988888888888888888888888889mF",
"FFFFFFFFFFFFFFFHFFGFFFFFGFFFFFFHJGFGFFFGGGGGGFFFFF",
"FFFFFFFFFFFHFFFFFFFFHFFFFFHFFFFFFFFFFFFFFFFFFFFFFH",
"FFGFFGGFHFFFFFHFFHFFFFFHFFFFFHFFFFFHFHFFFHHFHFFFFF"
};
