/* XPM */
static char *result[] = {
/* columns rows colors chars-per-pixel */
"50 50 169 2 ",
"   c #383C3F",
".  c #2D3037",
"X  c #171D21",
"o  c #696468",
"O  c gray46",
"+  c #00964B",
"@  c #64BD91",
"#  c #8ECEAE",
"$  c #38AC72",
"%  c #AEDAC4",
"&  c gray97",
"*  c #F6F7F6",
"=  c #D5EADF",
"-  c #D5EAE0",
";  c #61BC8F",
":  c #EEF4F1",
">  c #01974C",
",  c #04984E",
"<  c #03974D",
"1  c #F0F4F2",
"2  c #3FAF77",
"3  c #41B078",
"4  c #F3F5F4",
"5  c #B7DECB",
"6  c #45B17B",
"7  c #48B27D",
"8  c #C8E5D7",
"9  c #7AC6A0",
"0  c #02974D",
"q  c #BEE1D0",
"w  c #DFEDE6",
"e  c #2CA76A",
"r  c #8DCEAE",
"t  c #C4E3D3",
"y  c #34AB6F",
"u  c #099A51",
"i  c #46B27C",
"p  c #C3E3D3",
"a  c #7DC7A2",
"s  c #B6DECA",
"d  c #59B989",
"f  c #B2DCC7",
"g  c #67BF93",
"h  c #27A666",
"j  c #56B887",
"k  c #5CBA8B",
"l  c #A1D5BB",
"z  c #B8DECB",
"x  c #079950",
"c  c #5DBB8C",
"v  c #32AA6E",
"b  c #74C39B",
"n  c #F4F6F5",
"m  c #EFF4F2",
"M  c #DAECE3",
"N  c #E5F0EA",
"B  c #089951",
"V  c #E7F1EC",
"C  c #ACDAC3",
"Z  c #74C49C",
"A  c #2EA86B",
"S  c #75C49D",
"D  c #B0DBC6",
"F  c #02974C",
"G  c #AFDBC5",
"H  c #70C299",
"J  c #A4D7BD",
"K  c #089950",
"L  c #DBECE4",
"P  c #81C9A5",
"I  c #189F5C",
"U  c #8CCDAC",
"Y  c #D3E9DE",
"T  c #E3EFE9",
"R  c #6BC096",
"E  c #169F5A",
"W  c #31A96D",
"Q  c #6DC197",
"!  c #2AA668",
"~  c #E1EEE8",
"^  c #B7DECA",
"/  c #0C9B53",
"(  c #28A667",
")  c #DFEEE6",
"_  c #91CFB0",
"`  c #20A361",
"'  c #55B786",
"]  c #58B988",
"[  c #F5F6F6",
"{  c #ECF3EF",
"}  c #AAD9C1",
"|  c #C5E4D4",
" . c #20A261",
".. c #BADFCD",
"X. c #E5F0EB",
"o. c #3DAE76",
"O. c #21A362",
"+. c #DDEDE5",
"@. c #87CBA9",
"#. c #ADDAC3",
"$. c #53B785",
"%. c #B1DCC6",
"&. c #01964C",
"*. c #099951",
"=. c #B1DBC6",
"-. c #EFF4F1",
";. c #5EBB8D",
":. c #1CA15F",
">. c #C2E2D2",
",. c #36AB70",
"<. c #DCEDE5",
"1. c #37AC71",
"2. c #159E5A",
"3. c #CFE7DB",
"4. c #9DD4B8",
"5. c #26A566",
"6. c #57B888",
"7. c #C7E4D5",
"8. c #8CCDAD",
"9. c #A0D5BB",
"0. c #F1F5F3",
"q. c #7EC8A3",
"w. c #149E59",
"e. c #1EA260",
"r. c #109C56",
"t. c #0D9B54",
"y. c #139E59",
"u. c #72C39B",
"i. c #54B786",
"p. c #49B37E",
"a. c #04974D",
"s. c #65BE92",
"d. c #3CAD75",
"f. c #F3F6F5",
"g. c #F2F5F3",
"h. c #C7E4D6",
"j. c #06984F",
"k. c #D7EBE1",
"l. c #F2F5F4",
"z. c #51B683",
"x. c #1CA15E",
"c. c #22A363",
"v. c #B3DCC7",
"b. c #90CFAF",
"n. c #6AC095",
"m. c #25A565",
"M. c #88CCAA",
"N. c #E0EEE7",
"B. c #D4E9DF",
"V. c #9CD3B8",
"C. c #23A464",
"Z. c #95D0B3",
"A. c #54B785",
"S. c #BADFCC",
"D. c #9AD3B7",
"F. c #72C39A",
"G. c #7FC8A4",
"H. c #84CAA7",
"J. c #139D58",
"K. c #5FBB8D",
"L. c #93D0B2",
"P. c #24A464",
"I. c #D7EAE1",
"U. c #9ED4B9",
"Y. c #8ACCAB",
"T. c #BFE1D0",
"R. c #76C49D",
"E. c #D6EAE0",
"W. c #01964B",
/* pixels */
"    . .     X . . . . . . . . . o O o     . . .               X . . . . . . . .           X . . .   ",
"  X . . . . . . . . . . . o . . . .     X . . . . . .     X X . . . o O . . . . . . . X X . . . . . ",
"X . . . . o . . . . . . O o   . . . . . . . . o o . . . . . . . . o O     . . . . . . . o o . . . . ",
". . . o O O o . . . . O o     . . . . . . . o o O o . . . o O . . .       . . . . . o o O o   . . . ",
". . o O O o O   . + + + + + + + + + + + + + + + + + + + + + + + + + + + + + + + + o o O o     . . . ",
". . O     o     . + + + + + + + @ # # # # # # # # # # # # # # # # # # $ + + + + + o O O     X . . . ",
". . o   o       . + + + + + + + % & & & & & & & & & & * = = - & & & & ; + + + + + O   o   X X . . o ",
". .           X . + + + + + + + % & & & & & & & & & & : > > , & & & & ; + + + + +         X . . o O ",
"  . .       X . . + + + + + + + % & & & & & & & & & & : + + < & & & & ; + + + + +   o   X X . o O o ",
"  . . . X X . . . + + + + + + + % & & & & & & & & & & 1 2 2 3 & & & & ; + + + + + o       X . o O   ",
"  . . . . . . . . + + + + + + + % & & & & & & & & & & & 4 4 4 & & & & ; + + + + +         X . .     ",
". . . . . . O o . + + + + + + + % & & & 5 6 6 6 6 6 6 6 6 6 7 & & & & ; + + + + + .     X X . . . . ",
". . . . . O o   . + + + + + + + % & & 8 9 + + + + + + + + + 0 q w & & ; + + + + + . X X X . . . . . ",
". . . . o     . . + + + + + + + % & & e + + + + + + + + + + + + r & & ; + + + + + . . . . . . . . . ",
". . . . . . . . . + + + + + + + % t y u i p p a + + + + + + + + r & & ; + + + + + . . . . . . . . . ",
"o . . . . . . . . + + + + + + + % s + + d & f g + + + + + h j + k l l 2 + + + + + o . . . . . . . o ",
"o O . . . . . . . + + + + + + + % z x x c & v + + + + + x b n x < + + + + + + + + O o . . . . . . o ",
"O   . . . . . . o + + + + + + + % m M M N & v + + + + B M V & M c + + + + + + + + O o   X . . . o O ",
"o   X . . . . . o + + + + + + + % & & & & & v + + + + u & & & & C Z Z A + + + + + o     X . . . o O ",
"    X . . . . . o + + + + + + + % & & & & & v + + + + u & & & & & & & ; + + + + +     X X . . .     ",
"  X . . . . . . . + + + + + + + % & & & & & v + + + + u & & & & & & & ; + + + + +     X . . . . .   ",
"X . . . o o . . . + + + + + + + % & & & & & v + + + + , S D & & & & & ; + + + + +     X . . . . . . ",
". . . . O O o . . + + + + F < < G & & & & & v + + 0 > + + H & & & & & ; + + + + +   X X . . . . . . ",
". . . . o O     . + + + + J & & & & & & & & v + K L P + + H & & & & & ; + + + + + X X . . . . . . . ",
"o o . . .   o   X + + I U Y T R R R R R R R E + K L P + + W Q & & & & ; + + + + + . . . . . . . . . ",
"  O   . .       X + + ! & ~ ^ + + + + + + + + / ( ) _ ` + + < & & & & ; + + + + + . . . . o o . . . ",
".   X . . .   X . + + ! & ' F + + + + + + + + ] [ & * { + + < & & & & ; + + + + + . . . o o O o . . ",
". . . . . . . . . + + ! & t } } } } } } } } } | & & & : + + < & & & & ; + + + + + . . o o O o O o . ",
". . . . . . . . . + +  .........X.& & & & & & & & & & 1 o.O.0 ..+.& & ; + + + + + . . o O O o O o . ",
". . o o O O o o . + + + + + + + % & & & & & & & & & & & & @.+ + r & & ; + + + + + . . o O o o o O   ",
". o O O o O O o   + + + + + + + % & & & & & & & & & & & & @.+ + r & & ; + + + + + . . . O     O     ",
". o O o   o o     + + + + + + + % & & & & & & & & & & & & #.$.$.%.& & ; + + + + + . . . o o   o     ",
". O       o o     + + + + + &.*.=.& & & & & & & & & & & -.-.-.& & * -.;.+ + + + + . . . .         X ",
". o o   o       X + + + + + :.>.V & & & & & & & & & & 1 ,.,.$ & & <.1.2.+ + + + + o . . . .     X . ",
". .             X + + + + $ Q & & & & & & & & & & & 3.4.+ 5.6.& 7.8.&.+ + + + + + O O O . . X X . . ",
". . . .     X X X + + + + 9.0.0.0.0.0.0.0.0.0.0.0.0.q.+ + Q 0.0.g + + + + + + + + o O   . . . . . . ",
". . . . X X X X . + + + + w.e.e.e.e.e.e.e.e.e.e.e.e.r.+ + t.e.e.t.+ + + + + + + +   o     . . . . . ",
". . . . . X X . . + + y.u.u.u.u.u.i.+ ;.p.+ + + a.s.d., u.2 > u.u.u.u.u.u.u.5.+ + o       . . . . o ",
"o o . . . . . . . + + ! & f.g.g.g.f + h.4.j.&.F t.k.q.u & @.< g.g.l.& n g.g.z.+ +       X . . . o o ",
"O o o . . . . . . + + ! & $.+ + + + + + d & v d 1 x.+ u & @.+ + + c.* ; + + + + +     X . . . o o O ",
"O O o   . . . . . + + ! & v.b.b.b.n.+ + m.g M.P @ / + u & @.+ + + c.* ; + + + + + X X X . . . o O o ",
"o       X . . . o + + ! & N.B.B.B.V.+ + t.C.=.Z.c., + u & @.+ + + c.* ; + + + + + . X X X . . o O o ",
"  o     X . . o O + + ! & A.+ + + + + + d & v d 1 x.+ u & @.+ + + c.* ; + + + + + X . . X X . . o   ",
"      X . . o O o + + ! & S.D.D.D.F.+ G.H.c J.O.K.L.z.u & @.+ + + c.* ; + + + + + X . o o X X .     ",
"      X . . o O   + + P.I.I.I.I.I.U.+ =.Y.+ + + x T.H K I.R.+ + + e.E.i.+ + + + + X . o O   X X X   ",
"  X . . . . o O   + + W.< < < < < 0 + 0 F + + + + < F + < F + + + + < &.+ + + + + X . .       X X X ",
"X . . . . . .           X X . . . . . . X X . . . o o o o . . . .               X . . . . X X . . . ",
". . . . . . . .     X X X . . . . . . . . . . . o o O O O o . . . . .       X X . . o o . . . . . . ",
"O . . . o o . . X X X . . . . . . o . . . . . o o O     o o   X . . . X X X . . o o O o   . . . . . ",
"  . . o   O   . . . . . . . . . o O O   . . . o O o o   o     X . . . . . . . o O O o       . . . o "
};
