/* XPM */
static char *result[] = {
/* columns rows colors chars-per-pixel */
"50 50 145 2 ",
"   c #3C3750",
".  c #3F3851",
"X  c #4E384F",
"o  c #54394F",
"O  c #5D3A4F",
"+  c #433651",
"@  c #4C3752",
"#  c #433951",
"$  c #4C3B52",
"%  c #533753",
"&  c #593754",
"*  c #543951",
"=  c #5D3B51",
"-  c #603B4F",
";  c #6C3D4F",
":  c #733E4F",
">  c #7D3E4F",
",  c #613755",
"<  c #633B52",
"1  c #6B3C51",
"2  c #733C52",
"3  c #7C3C53",
"4  c #484055",
"5  c #5D4052",
"6  c #584856",
"7  c #644353",
"8  c #6B4554",
"9  c #6D4956",
"0  c #644958",
"q  c #694B58",
"w  c #724452",
"e  c #7A4552",
"r  c #734B56",
"t  c #7C4A55",
"y  c #734D59",
"u  c #7F4F59",
"i  c #66535D",
"p  c #6C565E",
"a  c #73525C",
"s  c #7C515A",
"d  c #6C5B61",
"f  c #705F64",
"g  c #69616B",
"h  c #706166",
"j  c #70656A",
"k  c #70686F",
"l  c #706A72",
"z  c #833F4E",
"x  c #8C3B54",
"c  c #933D53",
"v  c #9C3D53",
"b  c #A23E53",
"n  c #8C414E",
"m  c #9B424E",
"M  c #844653",
"N  c #894752",
"B  c #824C55",
"V  c #8C4B54",
"C  c #9C4650",
"Z  c #954D54",
"A  c #984F54",
"S  c #835057",
"D  c #8C5057",
"F  c #85555A",
"G  c #925156",
"H  c #9C5256",
"J  c #915458",
"K  c #9C5659",
"L  c #955B5C",
"P  c #9E5C5B",
"I  c #A3434E",
"U  c #AD444E",
"Y  c #B3454E",
"T  c #B2484F",
"R  c #A54051",
"E  c #A94151",
"W  c #B64A50",
"Q  c #A45255",
"!  c #A45B5A",
"~  c #AC5D5A",
"^  c #B05454",
"/  c #B15856",
"(  c #BC5A56",
")  c #B25F5B",
"_  c #BA5B59",
"`  c #9F605D",
"'  c #A2615D",
"]  c #AE635D",
"[  c #AF685F",
"{  c #B1675F",
"}  c #BB635D",
"|  c #B1685F",
" . c #B36860",
".. c #BF6D60",
"X. c #C15D57",
"o. c #C15E5A",
"O. c #C4635C",
"+. c #CA645B",
"@. c #C5695E",
"#. c #CC6C5F",
"$. c #C36E61",
"%. c #CB6A60",
"&. c #D06F60",
"*. c #C57063",
"=. c #CE7363",
"-. c #C4766A",
";. c #CE7669",
":. c #C67C6D",
">. c #D37563",
",. c #DC7265",
"<. c #D77867",
"1. c #D47769",
"2. c #D37B6B",
"3. c #DF7E6C",
"4. c #E07667",
"5. c #E17E6C",
"6. c #D0806F",
"7. c #D38672",
"8. c #DF9A7C",
"9. c #E3806D",
"0. c #E38570",
"q. c #E58D74",
"w. c #E59177",
"e. c #E99579",
"r. c #EA9A7C",
"t. c #EEA381",
"y. c #EFA883",
"u. c #E5AE88",
"i. c #F1AD86",
"p. c #F2B189",
"a. c #F5BA8E",
"s. c #EBBC90",
"d. c #F7BE90",
"f. c #ECC092",
"g. c #F6C292",
"h. c #F9C594",
"j. c #FAC996",
"k. c #FBCC98",
"l. c #FAD19F",
"z. c #FAD4A1",
"x. c #FBD9A6",
"c. c #FBDDAD",
"v. c #FBDFB0",
"b. c #FBE1B4",
"n. c #FBE3B9",
/* pixels */
"6 p j l k j p $ 0 d h k k j h k k h h f a 0 $ p d l h h f d 9 4 0 p h g l l k j p i $ p h k l j p 6 ",
"d a.z.b.x.l.u.a w.g.j.c.b.x.l.x.v.l.l.j.a.-.s r.h.b.z.z.k.g.e.y 6.a.j.x.n.b.x.z.h.w.a u.z.x.b.z.a.p ",
"d j.j.h.j.j.f.a r.k.j.j.j.j.j.j.j.j.j.j.h.:.s i.k.j.j.j.j.k.t.y 7.j.j.j.j.j.j.j.k.r.a f.j.h.j.j.j.d ",
"f h.j.j.j.k.s.a q.a.j.k.j.k.j.j.j.k.k.j.i.-.s e.d.k.k.j.j.a.w.y 2.p.j.k.j.j.j.j.a.q.a s.j.j.j.j.j.f ",
"i y.j.j.k.h.r.p 3.w.y.p.p.p.p.i.p.p.p.t.0.*.s 9.e.i.p.i.i.e.5.y ;.q.t.p.p.p.i.i.q.7.a r.g.k.j.j.y.9 ",
"9 9.r.t.r.r.<.9 ,.9.9.3.5.5.5.5.5.5.3.5.5.} t 4.5.5.5.5.5.5.4.r %.5.3.5.5.5.5.3.5.,.q <.r.t.t.r.0.q ",
"7 %.2.2.2.2.O.* < 0 q q q q q q q q q q q 5 $ 7 q q 0 q q q 7 @ = q q q q q q q r 7 o O.2.1.1.2.%.7 ",
"$ 9 9 y r r * .           + @ o o X + + % % o % @ + @ o o o @ + @ @ o % @ +           o 9 y y 9 q $ ",
"q w.r.q.5.,.7 + < ; ; 1 @ 3 b Y Y b 3 < v U U U x % v E Y U v % x b Y U b , % 1 ; , + 7 ,.7.q.r.w.q ",
"d g.k.a.q.5.q + < ; 1 ; @ = 1 1 1 1 = % ; ; ; ; < @ 1 1 1 ; 1 @ < ; ; ; 1 * % 1 ; < + q 5.q.a.k.g.d ",
"d k.j.j.i.5.q   . < !  .{ [ { w w ~ | | A * K [  . .[ A * H [  .] w w ]  . .] Q <     q 5.i.j.j.x.j ",
"j x.j.k.p.5.q   . 3 %.>.>.>.>.D D >.>.>.O.7 @.>.>.>.>.$.7 @.=.>.>.V G >.>.>.>.+.z   . 9 5.i.j.j.z.j ",
"l v.j.j.p.5.q   . % B F F F B < = S F F w X w F F F F e @ e F F S = = S F S F e % .   q 5.p.j.j.l.h ",
"l n.h.j.p.5.q + 3 x Z K - w P ' ' ! P < w ! ' ! N o G ' ' ' Z o N ' ' ` K ; : Z x 3 + q 5.p.k.j.b.l ",
"j x.j.k.p.5.q % U Y +.>.B K >.>.>.>.>.B K >.>.>.} 8 #.>.>.<.#.8 } >.>.>.>.B P +.Y b o q 3.p.k.j.x.j ",
"h j.k.j.y.5.q + 2 z V G O ; L L L L J < ; L L L t % B ` L L V * M L L L D = : n z 2 + q 9.t.j.j.k.f ",
"d d.j.p.q.3.q     & B J L J M & . & > > 1 + @ 2 > > > 1 +     .     & M J L L M & .   q 5.q.p.j.a.p ",
"6 2.7.2.;.%.< .   z +.>.>.>.+.> . $ * = o     % O & o X .           z +.>.>.>.@.3 . . = %.;.2.7.6.0 ",
"$ y y y y w $ .   = Z ' ' ' Z ,     # 7 q q q 7 + # = 0 7 7 = +     , Z ` ' ' Z , . . $ w y y r y $ ",
"9 e.t.w.9.,.7 + 1 2 e u = - e : 1 + 7 4.9.9.9.,.7 = #.<.2.<.&.7 + 1 : e t * 1 e : < + 7 ,.5.e.t.e.i ",
"d h.k.a.w.5.q @ R Y O.&.B K +.Y b % q 5.9.r.p.p.i i p.p.r.5.9.q X b Y W &.B H +.Y R @ q 5.w.a.k.g.f ",
"h k.j.k.i.5.q @ x C Q ) 1 e Q v x @ q 5.e.g.j.j.d d j.k.g.r.5.q @ x m m ~ ; e Q m x @ q 5.i.j.j.x.j ",
"h z.j.k.p.5.q   # @ y r y r 8 % +   q 5.p.j.j.j.i d j.j.j.p.5.q   + * 7 r r r 9 % #   q 5.p.j.j.n.l ",
"h z.j.j.i.3.q   . 3 %.>.>.>.o.3     7 ,.p.j.v.v.d d v.c.k.p.,.8     3 O.=.>.=.O.3     q 5.p.j.j.v.k ",
"j x.j.j.p.5.q     1  ......./ 1 . . # 7 i d g g . 4 g g d i 5 #     1 ~ @...@./ 1     q 5.p.k.j.k.h ",
"h k.j.k.p.5.q . % O 1 8 = 5 - O % + # 5 i d g g 4 4 g g d i 5 # + % O 1 q * O 7 O % + q 5.p.j.j.x.j ",
"l b.j.j.i.5.q @ b U } #.t H T U v @ 7 ,.p.k.c.c.d g c.v.k.p.,.7 X b U o.#.t Z X.U b @ q 5.p.j.j.z.h ",
"l n.j.j.p.5.q @ C U ( @.r G U U v @ q 3.p.k.j.j.d d f.j.k.p.5.q $ v U _ @.w V ( U v % q 5.p.k.j.z.j ",
"j x.j.j.i.5.q   % * < 8 5 7 < * X   q 5.r.g.j.j.i d j.k.g.r.5.q   @ = < 7 5 5 < o @ . q 5.i.k.h.k.f ",
"d h.k.a.w.9.q   < < ! @.*.*._ 2 .   9 5.9.r.p.p.i i p.p.r.9.5.q     2 _ *.*.*._ 2     q 5.e.a.k.g.d ",
"q r.t.q.9.,.7   < < ~ =.=.=._ 3     7 ,.5.5.5.,.5 7 ,.5.5.9.,.8     : O.=.=.=.o.3     7 ,.5.w.t.e.q ",
"$ y y y a w X . @ X 5 q q 7 = $ . . $ 8 q q q 8 # # 7 q q q 7 X   + o 7 9 8 7 7 % + . @ r y r y a $ ",
"q 2.7.2.;.@.< @ c I / } w       . . .                           X c I / } 1 M ^ I c @ = %.;.2.7.6.q ",
"d a.k.p.0.5.q $ R Y O.&.t   . . . . . . % ; ; ; = @ , ; ; ; ; & * b Y O.&.B H +.Y b @ q 5.q.p.j.a.p ",
"d k.k.j.i.5.q   < 1 8 r o . # # . . # # % ; ; : & $ < ; ; ; ; < + < ; w r o O ; ; < . q 3.y.j.j.j.h ",
"g x.j.k.p.5.8     , * Q | { | ~ ; N { { [ N = ! { | { { Z O ! | | ~ O N [ { | Q <     8 5.p.k.j.x.j ",
"l b.j.j.p.9.q     3 7 @.>.>.>.>.r ! >.>.>.~ r %.>.>.>.>.{ 9 #.>.>.&.r ! >.>.>.+.3     q 5.p.j.j.b.k ",
"h z.j.j.p.9.q     * $ t F F F t o 1 F F F ; o u F F F F : X B F F B o ; F F F e *     q 3.p.j.j.l.j ",
"g z.j.k.p.5.q + z x A K - : P ' ' ! : O K ' ! P V % Z ` P ' G o M ' ' ' K ; ; Z x z + q 5.p.k.j.l.g ",
"j x.j.j.i.9.q o U Y +.>.B K >.>.>.>.! B >.>.>.>.} 8 #.>.>.>.#.9 } >.>.>.>.B K +.Y U % q 5.i.j.j.k.h ",
"d g.j.a.w.9.q + 2 z N G = ; J L L L 2 = G L L L t o V L L L V * e L L L J O ; N z 2 + q 5.q.a.k.g.p ",
"0 w.r.q.5.,.7     & 3 > > > 3 &       . . + 1 > > 3 3 1 +   . .     & > e > > 3 % . . 7 ,.3.q.r.w.q ",
"$ q r y y 9 * .   + * o o o * #     .       % o O o o * +   . .     + o o o o o + . + * q y y 9 r $ ",
"7 %.2.1.1.1.O.o 7 q q q q q q q q 7 $ 8 q q q q q q 7 $ = q q q 8 9 q q q q q q q 7 * O.1.1.1.2.#.7 ",
"q 0.r.t.t.r.2.9 ,.5.9.9.5.5.5.5.5.O.w ,.5.5.5.5.3.9.4.t } 5.5.5.5.5.5.5.5.5.5.5.5.,.y 2.r.t.t.r.q.q ",
"9 y.j.k.k.h.e.p 5.w.i.p.p.p.p.t.q.1.a 5.e.i.p.p.i.w.9.s *.0.y.p.p.p.p.p.p.p.p.i.q.3.a 8.h.k.k.h.r.p ",
"d h.k.j.j.j.s.a q.a.j.j.j.j.k.k.p.2.y e.a.j.j.k.k.d.e.s -.i.j.k.j.j.k.j.j.k.k.j.a.q.a s.k.j.j.k.h.p ",
"h j.j.h.j.j.f.a r.j.j.j.j.j.j.j.j.7.y r.k.j.j.j.j.j.i.s :.j.j.j.j.j.j.j.j.h.j.j.k.r.a g.h.j.j.h.j.h ",
"p a.z.b.x.l.u.a w.g.k.l.l.b.x.j.a.6.a e.g.k.l.z.b.h.r.s -.a.j.z.k.v.v.l.x.v.x.k.g.w.a u.l.x.b.z.g.p ",
"6 p j l k j p $ q p h g j l j h p q $ q p h j j k f p $ 7 p d j h l g h j l k h d q $ p h k l g p 6 "
};
